/* XPM */
static char *gun2[] = {
/* columns rows colors chars-per-pixel */
"128 128 23 1 ",
"  c black",
". c #070000",
"X c #0B0000",
"o c gray12",
"O c #2B230F",
"+ c #232323",
"@ c #2F2F2F",
"# c #373737",
"$ c gray23",
"% c #434343",
"& c #4B4B4B",
"* c gray34",
"= c #5B5B5B",
"- c #676767",
"; c gray45",
": c #7B7B7B",
"> c gray50",
", c gray56",
"< c #9B9B9B",
"1 c gray67",
"2 c #B7B7B7",
"3 c #C3C3C3",
"4 c None",
/* pixels */
"44444444444444444444444444444444444444444444444444444444444444444444444444444444444444444444444444444444444444444444444444444444",
"44444444444444444444444444444444444444444444444444444444444444444444444444444444444444444444444444444444444444444444444444444444",
"44444444444444444444444444444444444444444444444444444444444444444444444444444444444444444444444444444444444444444444444444444444",
"44444444444444444444444444444444444444444444444444444444444444444444444444444444444444444444444444444444444444444444444444444444",
"44444444444444444444444444444444444444444444444444444444444444444444444444444444444444444444444444444444444444444444444444444444",
"44444444444444444444444444444444444444444444444444444444444444444444444444444444444444444444444444444444444444444444444444444444",
"44444444444444444444444444444444444444444444444444444444444444444444444444444444444444444444444444444444444444444444444444444444",
"44444444444444444444444444444444444444444444444444444444444444444444444444444444444444444444444444444444444444444444444444444444",
"44444444444444444444444444444444444444444444444444444444444444444444444444444444444444444444444444444444444444444444444444444444",
"44444444444444444444444444444444444444444444444444444444444444444444444444444444444444444444444444444444444444444444444444444444",
"44444444444444444444444444444444444444444444444444444444444444444444444444444444444444444444444444444444444444444444444444444444",
"44444444444444444444444444444444444444444444444444444444444444444444444444444444444444444444444444444444444444444444444444444444",
"44444444444444444444444444444444444444444444444444444444444444444444444444444444444444444444444444444444444444444444444444444444",
"44444444444444444444444444444444444444444444444444444444444444444444444444444444444444444444444444444444444444444444444444444444",
"44444444444444444444444444444444444444444444444444444444444444444444444444444444444444444444444444444444444444444444444444444444",
"44444444444444444444444444444444444444444444444444444444444444444444444444444444444444444444444444444444444444444444444444444444",
"44444444444444444444444444444444444444444444444444444444444444444444444444444444444444444444444444444444444444444444444444444444",
"44444444444444444444444444444444444444444444444444444444444444444444444444444444444444444444444444444444444444444444444444444444",
"44444444444444444444444444444444444444444444444444444444444444444444444444444444444444444444444444444444444444444444444444444444",
"44444444444444444444444444444444444444444444444444444444444444444444444444444444444444444444444444444444444444444444444444444444",
"44444444444444444444444444444444444444444444444444444444444444444444444444444444444444444444444444444444444444444444444444444444",
"44444444444444444444444444444444444444444444444444444444444444444444444444444444444444444444444444444444444444444444444444444444",
"44444444444444444444444444444444444444444444444444444444444444444444444444444444444444444444444444444444444444444444444444444444",
"44444444444444444444444444444444444444444444444444444444444444444444444444444444444444444444444444444444444444444444444444444444",
"44444444444444444444444444444444444444444444444444444444444444444444444444444444444444444444444444444444444444444444444444444444",
"44444444444444444444444444444444444444444444444444444444444444444444444444444444444444444444444444444444444444444444444444444444",
"44444444444444444444444444444444444444444444444444444444444444444444444444444444444444444444444444444444444444444444444444444444",
"44444444444444444444444444444444444444444444444444444444444444444444444444444444444444444444444444444444444444444444444444444444",
"44444444444444444444444444444444444444444444444444444444444444444444444444444444444444444444444444444444444444444444444444444444",
"44444444444444444444444444444444444444444444444444444444444444444444444444444444444444444444444444444444444444444444444444444444",
"44444444444444444444444444444444444444444444444444444444444444444444444444444444444444444444444444444444444444444444444444444444",
"44444444444444444444444444444444444444444444444444444444444444444444444444444444444444444444444444444444444444444444444444444444",
"44444444444444444444444444444444444444444444444444444444444444444444444444444444444444444444444444444444444444444444444444444444",
"44444444444444444444444444444444444444444444444444444444444444444444444444444444444444444444444444444444444444444444444444444444",
"44444444444444444444444444444444444444444444444444444444444444444444444444444444444444444444444444444444444444444444444444444444",
"44444444444444444444444444444444444444444444444444444444444444444444444444444444444444444444444444444444444444444444444444444444",
"44444444444444444444444444444444444444444444444444444444444444444444444444444444444444444444444444444444444444444444444444444444",
"44444444444444444444444444444444444444444444444444444444444444444444444444444444444444444444444444444444444444444444444444444444",
"44444444444444444444444444444444444444444444444444444444444444444444444444444444444444444444444444444444444444444444444444444444",
"44444444444444444444444444444444444444444444444444444444444444444444444444444444444444444444444444444444444444444444444444444444",
"44444444444444444444444444444444444444444444444444444444444444444444444444444444444444444444444444444444444444444444444444444444",
"44444444444444444444444444444444444444444444444444444444444444444444444444444444444444444444444444444444444444444444444444444444",
"44444444444444444444444444444444444444444444444444444444444444444444444444444444444444444444444444444444444444444444444444444444",
"44444444444444444444444444444444444444444444444444444444444444444444444444444444444444444444444444444444444444444444444444444444",
"44444444444444444444444444444444444444444444444444444444444444444444444444444444444444444444444444444444444444444444444444444444",
"44444444444444444444444444444444444444444444444444444444444444444444444444444444444444444444444444444444444444444444444444444444",
"44444444444444444444444444444444444444444444444444444444444444444444444444444444444444444444444444444444444444444444444444444444",
"44444444444444444444444444444444444444444444444444444444444444444444444444444444444444444444444444444444444444444444444444444444",
"44444444444444444444444444444444444444444444444444444444444444444444444444444444444444444444444444444444444444444444444444444444",
"44444444444444444444444444444444444444444444444444444444444444444444444444444444444444444444444444444444444444444444444444444444",
"44444444444444444444444444444444444444444444444444444444444444444444444444444444444444444444444444444444444444444444444444444444",
"44444444444444444444444444444444444444444444444444444444444444444444444444444444444444444444444444444444444444444444444444444444",
"44444444444444444444444444444444444444444444444444444444444444444444444444444444444444444444444444444444444444444444444444444444",
"44444444444444444444444444444444444444444444444444444444444444444444444444444444444444444444444444444444444444444444444444444444",
"44444444444444444444444444444444444444444444444444444444444444444444444444444444444444444444444444444444444444444444444444444444",
"44444444444444444444444444444444444444444444444444444444444444444444444444444444444444444444444444444444444444444444444444444444",
"44444444444444444444444444444444444444444444444444444444444444444444444444444444444444444444444444444444444444444444444444444444",
"44444444444444444444444444444444444444444444444444444444444444444444444444444444444444444444444444444444444444444444444444444444",
"44444444444444444444444444444444444444444444444444444444444444444444444444444444444444444444444444444444444444444444444444444444",
"4444444444444444444444444444444444444444444444444444444444             444444444444444444444444444444444444444444444444444444444",
"4444444444444444444444444444444444444444444444444444444  .             .  444444444444444444444444444444444444444444444444444444",
"44444444444444444444444444444444444444444444444444444   X               X   4444444444444444444444444444444444444444444444444444",
"444444444444444444444444444444444444444444444444444   .   +++$$$$$$$+++   .   44444444444444444444444444444444444444444444444444",
"44444444444444444444444444444444444444444444444444  o++@*;>,,,;&%&;,,,>;*@++o  4444444444444444444444444444444444444444444444444",
"444444444444444444444444444444444444444444444444  .o@&;>,1221;%@@@%;1221,>;&@o.  44444444444444444444444444444444444444444444444",
"44444444444444444444444444444444444444444444444  o@=;>>,<123;+-----+;321<,>>;=@o  4444444444444444444444444444444444444444444444",
"4444444444444444444444444444444444444444444444 .#&=-;>,<<123&+>,,,>+&321<<,>;-=&#. 444444444444444444444444444444444444444444444",
"444444444444444444444444444444444444444444444  $&=--;>,<<123%@,<<<,@%321<<,>;--=&$  44444444444444444444444444444444444444444444",
"44444444444444444444444444444444444444444444 .%%==--;>,<<123&#<<<<<#&321<<,>;--==%%. 4444444444444444444444444444444444444444444",
"4444444444444444444444444444444444444444444 o@%&===--;><<112-&,<<<,&-211<<>;--===&%@o 444444444444444444444444444444444444444444",
"444444444444444444444444444444444444444444 X+%&=====-;>;;-&&==-;>;-==&&-;;>;-=====&%+X 44444444444444444444444444444444444444444",
"44444444444444444444444444444444444444444 .+@%&====**&#@$&&&&&&&*&&&&&&&$@#&**====&%@+. 4444444444444444444444444444444444444444",
"4444444444444444444444444444444444444444  ++@$%&&%%##+###$+&&&*=*=*&&&+$###+##%%&&%$@++  444444444444444444444444444444444444444",
"4444444444444444444444444444444444444444 o++@$#%$#@++##@++*=---------=*++@##++@#$%#$@++o 444444444444444444444444444444444444444",
"444444444444444444444444444444444444444.ooo++@#@@++#$@++$---------------$++@$#++@@#@++ooo.44444444444444444444444444444444444444",
"44444444444444444444444444444444444444 oooo++++++@#%@++$----;;>>>>>;;----$++@%#@++++++oooo 4444444444444444444444444444444444444",
"44444444444444444444444444444444444444 ooooo++++@$@+++$*=->>;-=***=-;>>-=*$+++@$@++++ooooo 4444444444444444444444444444444444444",
"4444444444444444444444444444444444444 Xoooooo++@$+++@$&&$oXXoooooooooXXo$&&$@+++$@++ooooooX 444444444444444444444444444444444444",
"4444444444444444444444444444444444444Xoooooo+@@@+++%$Xooo+#&&--*=*--&&#+oooX$%+++@@@+ooooooX444444444444444444444444444444444444",
"444444444444444444444444444444444444 oooooo+@#$#$$@Xo+##%*==-;>,,,>;-==*%##+oX@$$#$#@+oooooo 44444444444444444444444444444444444",
"444444444444444444444444444444444444 ooooo+@##@+ooo+++&&-=;>>,,,,,,,>>;=-&&+++ooo+@##@+ooooo 44444444444444444444444444444444444",
"444444444444444444444444444444444444Xoooo+#@@+oo@@@++&&=;,>;---***---;>,;=&&++@@@oo+@@#+ooooX44444444444444444444444444444444444",
"44444444444444444444444444444444444 +ooX+#@+ooo@@$++*-&$+++@#&&&%&&&#@+++$&-*++$@@ooo+@#+Xoo+ 4444444444444444444444444444444444",
"44444444444444444444444444444444444 ooXo@+oooo@@$&-&oo+$=-;;>>>,,,>>>;;-=$+oo&-&$@@oooo+@oXoo 4444444444444444444444444444444444",
"44444444444444444444444444444444444 ooXooooooo@%%+oo+&*=--;;>>,,,,,>>;;--=*&+oo+%%@oooooooXoo 4444444444444444444444444444444444",
"44444444444444444444444444444444444 oXooooooo$$+o++++&**->>>>>>>>>>>>>>>-**&++++o+$$oooooooXo 4444444444444444444444444444444444",
"44444444444444444444444444444444444  Xooooo+@+oo@@++&-;>>;-&++@@+@@++&-;>>;-&++@@oo+@+oooooX  4444444444444444444444444444444444",
"44444444444444444444444444444444444 XXoooo++oo@@@$%-*&@ooo+#&-------&#+ooo@&*-%$@@@oo++ooooXX 4444444444444444444444444444444444",
"44444444444444444444444444444444444 Xoooo+oo+@@#&=%ooo#*--;;>>,,,,,>>;;--*#ooo%=&#@@+oo+ooooX 4444444444444444444444444444444444",
"44444444444444444444444444444444444 Xooo+oooo@&$ooo++&&*--;;;,,,,,,,;;;--*&&++ooo$&@oooo+oooX 4444444444444444444444444444444444",
"44444444444444444444444444444444444 Xoooooo+$@oo+@+++&*=-;>>>>>>>>>>>>>;-=*&+++@+oo@$+ooooooX 4444444444444444444444444444444444",
"44444444444444444444444444444444444 oooooo+#ooo@#@++&=;;-&@++ooooooo++@&-;;=&++@#@ooo#+oooooo 4444444444444444444444444444444444",
"44444444444444444444444444444444444 ooooo++oo+@@$+%=-&@ooo@#&=-----=&#@ooo@&-=%+$@@+oo++ooooo 4444444444444444444444444444444444",
"44444444444444444444444444444444444 oooo+ooo+@@$&%++o+%&=-;;>,,,,,,,>;;-=&%+o++%&$@@+ooo+oooo 4444444444444444444444444444444444",
"44444444444444444444444444444444444 oooooooo+@%@o+@&**=-;;>,,,<<<<<,,,>;;-=**&@+o@%@+oooooooo 4444444444444444444444444444444444",
"44444444444444444444444444444444444 ooooooo+@+o@$&&**=-;:>,,,<<<<<<<,,,>:;-=**&&$@o+@+ooooooo 4444444444444444444444444444444444",
"44444444444444444444444444444444444 oooooo++o@$&****=-;:>,,,,<<<<<<<,,,,>:;-=****&$@o++oooooo 4444444444444444444444444444444444",
"44444444444444444444444444444444444 ooooooo+@$&&&&&&=-;>,,,,<<<<<<<<<,,,,>;-=&&&&&&$@+ooooooo 4444444444444444444444444444444444",
"44444444444444444444444444444444444 oooooo@@@$$&&&&&&-;>,,,,<<<<<<<<<,,,,>;-&&&&&&$$@@@oooooo 4444444444444444444444444444444444",
"4444444444444444444444444444444444  oo ++@o+++@$&**&&-;>,,,,<<<<<<<<<,,,,>;-&&**&$@+++o@++ oo  444444444444444444444444444444444",
"4444444444444444444444444444444444  o o+oo+++++@$**&&-;>,,,,<<<<<<<<<,,,,>;-&&**$@+++++oo+o o  444444444444444444444444444444444",
"4444444444444444444444444444444444   o+oooo+++++$*=&&-;>,,>,<<<<<<<<<,>,,>;-&&=*$+++++oooo+o   444444444444444444444444444444444",
"4444444444444444444444444444444444   oooo+++++++@**&&-;>,,>,<<<<<<<<<,>,,>;-&&**@+++++++oooo   444444444444444444444444444444444",
"444444444444444444444444444444444   ooooo++++@++@*&&&-;>,>>,<<,<<<,<<,>>,>;-&&&*@++@++++ooooo   44444444444444444444444444444444",
"444444444444444444444444444444444   +oooo+++@$++@*&&*-;>,>>,<,,<<<,,<,>>,>;-*&&*@++$@+++oooo+   44444444444444444444444444444444",
"444444444444444444444444444444444  o+ooo++++$%@@$*&&*-;>,>>,<,,<<<,,<,>>,>;-*&&*$@@%$++++ooo+o  44444444444444444444444444444444",
"444444444444444444444444444444444  ooooo+++@%%@@$*&&*;;>,>>,<,,<<<,,<,>>,>;;*&&*$@@%%@+++ooooo  44444444444444444444444444444444",
"44444444444444444444444444444444  o+oooo+++$%%@@$=&&-;>,,>>,<,,<<<,,<,>>,,>;-&&=$@@%%$+++oooo+o  4444444444444444444444444444444",
"44444444444444444444444444444444  @+oooo++@$&$@@&=&&-;>,,:>,,,,<<<,,,,>:,,>;-&&=&@@$&$@++oooo+@  4444444444444444444444444444444",
"44444444444444444444444444444444 o@+oooo++@%&$@@&=&&-;>,,:>,,,,<<<,,,,>:,,>;-&&=&@@$&%@++oooo+@o 4444444444444444444444444444444",
"44444444444444444444444444444444o@++ooo+++$&%$@@&=&&-;>,,:>,,,,<<<,,,,>:,,>;-&&=&@@$%&$+++ooo++@o4444444444444444444444444444444",
"4444444444444444444444444444444 o@++oooo+@$&%@@@&=&&-;>,,:>,,,,<<<,,,,>:,,>;-&&=&@@@%&$@+oooo++@o 444444444444444444444444444444",
"4444444444444444444444444444444 o@++ooo++@$&%@@@&=&&;;>,,>>,,,,<<<,,,,>>,,>;;&&=&@@@%&$@++ooo++@o 444444444444444444444444444444",
"4444444444444444444444444444444 o@+oooo++@$&%@@$&&&&;;>,>>>,,,,<<<,,,,>>>,>;;&&&&$@@%&$@++oooo+@o 444444444444444444444444444444",
"4444444444444444444444444444444o@++ooooo+@%&$@@$&&&*;;>,>>>,,,,<<<,,,,>>>,>;;*&&&$@@$&%@+ooooo++@o444444444444444444444444444444",
"444444444444444444444444444444 o@+oooooo@$%&$@@$*&&*;;>,>>>,,,,<<<,,,,>>>,>;;*&&*$@@$&%$@oooooo+@o 44444444444444444444444444444",
"444444444444444444444444444444 o@+ooooo+@$&&$@@&*&&-;;>,:>,,,,<<<<<,,,,>:,>;;-&&*&@@$&&$@+ooooo+@o 44444444444444444444444444444",
"444444444444444444444444444444 o@+++ooo+@$&&$@@&*&&-;>,,:>,,,,<<<<<,,,,>:,,>;-&&*&@@$&&$@+ooo+++@o 44444444444444444444444444444",
"444444444444444444444444444444 o@++ooooO@$&%$@@&*&&;;>,,:>,,,,<<<<<,,,,>:,,>;;&&*&@@$%&$@Ooooo++@o 44444444444444444444444444444",
"44444444444444444444444444444 o@++ooooo+$%&%$@@&*&&;;>,,:>,,,,<<<<<,,,,>:,,>;;&&*&@@$%&%$+ooooo++@o 4444444444444444444444444444",
"44444444444444444444444444444 o@++ooooo@$%&%$@$&=&&;;>,,:>,,,,<<<<<,,,,>:,,>;;&&=&$@$%&%$@ooooo++@o 4444444444444444444444444444",
"44444444444444444444444444444 o@++ooooo@$&&%$@$&=&&;;>,,:>,,,,<<<<<,,,,>:,,>;;&&=&$@$%&&$@ooooo++@o 4444444444444444444444444444",
"44444444444444444444444444444 o@++ooooo@$&&%@@$&=&&;>>,,:>,,,,<<<<<,,,,>:,,>>;&&=&$@@%&&$@ooooo++@o 4444444444444444444444444444",
"4444444444444444444444444444 o@++ooooo+@$&&$@@&**&*;>>,,:>,,,,<<<<<,,,,>:,,>>;*&**&@@$&&$@+ooooo++@o 444444444444444444444444444",
"4444444444444444444444444444 o@++ooooo+@$&&$@$&*&&*;>,,,:>,,,,<<<<<,,,,>:,,,>;*&&*&$@$&&$@+ooooo++@o 444444444444444444444444444",
"4444444444444444444444444444 o@++oooo+@@%&&$@$&*&&*;>,,,:>,,,,<<<<<,,,,>:,,,>;*&&*&$@$&&%@@+oooo++@o 444444444444444444444444444",
"444444444444444444444444444+ o@++oooo+@@%&%$@$&=&&-;>,,,:>,,,,<<<<<,,,,>:,,,>;-&&=&$@$%&%@@+oooo++@o  44444444444444444444444444",
"444444444444444444444444444 o@@++oooo+@$&&%$@$&=&&-;>,,,:>,,,,<<<<<,,,,>:,,,>;-&&=&$@$%&&$@+oooo++@@o 44444444444444444444444444"
};
